# xmcd
# 
# Track frame offsets:
#     150
#     15620
#     29350
#     48665
#     66780
#     83147
#     100762
#     122130
#     139877
#     156155
#     174240
# 
# Disc length: 2563
# 
# Revision: 8
# Processed by: cddbd v1.5.2PL0 Copyright (c) Steve Scherf et al.
# Submitted via: BonkEnc v1.0.8
# 
DISCID=8c0a010b
DTITLE=Travis Tritt - Down The Road I Go
DYEAR=2000
DGENRE=Country
TTITLE0=Down The Road I Go
TTITLE1=Livin' On Borrowed Time
TTITLE2=Best Of Intentions
TTITLE3=It's A Great Day To Be Alive
TTITLE4=Love Of A Woman
TTITLE5=Never Get Away From Me (for Waylon and Jessi)
TTITLE6=Modern Day Bonnie And Clyde
TTITLE7=I Wish I Was Wrong
TTITLE8=If The Fall Don't Kill You
TTITLE9=Just Too Tired To Fight It
TTITLE10=Southbound Train
EXTD=YEAR: 2000 ID3G:   2
EXTT0=
EXTT1=
EXTT2=
EXTT3=
EXTT4=
EXTT5=
EXTT6=
EXTT7=
EXTT8=
EXTT9=
EXTT10=
PLAYORDER=
